<svg width="512" height="512" viewBox="0 0 512 512" fill="none" xmlns="http://www.w3.org/2000/svg">
<mask id="mask0_2854_189639" style="mask-type:alpha" maskUnits="userSpaceOnUse" x="16" y="1" width="479" height="511">
<path d="M453.064 146.025L434.936 177.128L256 72.834L86 171.919V339.08L256 438.165L426 339.08V247H462V359.766L256 479.834L50 359.766V151.234L256 31.166L453.064 146.025Z" fill="#161616"/>
<path d="M302 53C302 27.5949 281.405 7 256 7C230.595 7 210 27.5949 210 53C210 78.4051 230.595 99 256 99C281.405 99 302 78.4051 302 53ZM308 53C308 81.7188 284.719 105 256 105C227.281 105 204 81.7188 204 53C204 24.2812 227.281 1 256 1C284.719 1 308 24.2812 308 53Z" fill="#161616"/>
<path d="M302 460C302 434.595 281.405 414 256 414C230.595 414 210 434.595 210 460C210 485.405 230.595 506 256 506C281.405 506 302 485.405 302 460Z" fill="#161616"/>
<path d="M302 460C302 485.405 281.405 506 256 506C230.595 506 210 485.405 210 460C210 434.595 230.595 414 256 414C281.405 414 302 434.595 302 460ZM308 460C308 431.281 284.719 408 256 408C227.281 408 204 431.281 204 460C204 488.719 227.281 512 256 512C284.719 512 308 488.719 308 460Z" fill="#161616"/>
<path d="M114 161C114 186.405 93.4051 207 68 207C42.5949 207 22 186.405 22 161C22 135.595 42.5949 115 68 115C93.4051 115 114 135.595 114 161Z" fill="#161616"/>
<path d="M114 161C114 135.595 93.4051 115 68 115C42.5949 115 22 135.595 22 161C22 186.405 42.5949 207 68 207C93.4051 207 114 186.405 114 161ZM120 161C120 189.719 96.7188 213 68 213C39.2812 213 16 189.719 16 161C16 132.281 39.2812 109 68 109C96.7188 109 120 132.281 120 161Z" fill="#161616"/>
<path d="M114 350C114 324.595 93.4051 304 68 304C42.5949 304 22 324.595 22 350C22 375.405 42.5949 396 68 396C93.4051 396 114 375.405 114 350Z" fill="#161616"/>
<path d="M114 350C114 375.405 93.4051 396 68 396C42.5949 396 22 375.405 22 350C22 324.595 42.5949 304 68 304C93.4051 304 114 324.595 114 350ZM120 350C120 321.281 96.7188 298 68 298C39.2812 298 16 321.281 16 350C16 378.719 39.2812 402 68 402C96.7188 402 120 378.719 120 350Z" fill="#161616"/>
<path d="M489 161C489 186.405 468.405 207 443 207C417.595 207 397 186.405 397 161C397 135.595 417.595 115 443 115C468.405 115 489 135.595 489 161Z" fill="#161616"/>
<path d="M489 161C489 135.595 468.405 115 443 115C417.595 115 397 135.595 397 161C397 186.405 417.595 207 443 207C468.405 207 489 186.405 489 161ZM495 161C495 189.719 471.719 213 443 213C414.281 213 391 189.719 391 161C391 132.281 414.281 109 443 109C471.719 109 495 132.281 495 161Z" fill="#161616"/>
<path d="M489 350C489 324.595 468.405 304 443 304C417.595 304 397 324.595 397 350C397 375.405 417.595 396 443 396C468.405 396 489 375.405 489 350Z" fill="#161616"/>
<path d="M489 350C489 375.405 468.405 396 443 396C417.595 396 397 375.405 397 350C397 324.595 417.595 304 443 304C468.405 304 489 324.595 489 350ZM495 350C495 321.281 471.719 298 443 298C414.281 298 391 321.281 391 350C391 378.719 414.281 402 443 402C471.719 402 495 378.719 495 350Z" fill="#161616"/>
<path d="M307.472 361.377V327.861H305.967C302.957 348.997 283.692 365 252.087 365C203.926 365 166 327.56 166 256.906C166 185.95 204.227 147 261.117 147C298.441 147 326.435 163.607 342.087 195.914L304.763 217.352C298.441 201.047 285.498 187.762 261.117 187.762C232.823 187.762 214.462 204.066 214.462 239.091V272.909C214.462 307.934 232.823 324.238 261.117 324.238C283.993 324.238 302.355 313.368 302.355 292.837V285.269H263.224V246.922H346V339.5L307.472 361.377Z" fill="#161616"/>
<path d="M302 53C302 78.4051 281.405 99 256 99C230.595 99 210 78.4051 210 53C210 27.5949 230.595 7 256 7C281.405 7 302 27.5949 302 53Z" fill="#161616"/>
</mask>
<g mask="url(#mask0_2854_189639)">
<rect width="512" height="512" fill="url(#paint0_linear_2854_189639)"/>
</g>
<defs>
<linearGradient id="paint0_linear_2854_189639" x1="-44.5552" y1="38.1457" x2="452.348" y2="528.354" gradientUnits="userSpaceOnUse">
<stop stop-color="#303030"/>
<stop offset="1" stop-color="#CACACA"/>
</linearGradient>
</defs>
</svg>
